<svg xmlns="http://www.w3.org/2000/svg" width="1297.43" height="447.955" viewBox="0 0 1297.43 447.955"><g transform="translate(533.1 -7696.673)"><path d="M3234.91,305.45l36.35-87.76,36.35,87.76Zm63.74-195.63h-54.78L3126,394.4l-53-93.74a101.25,101.25,0,0,0-47.2-190.83h-115V250.54h-127v61.78h54.46a89.21,89.21,0,1,1-22.73-127.84l46.69-46.68a154.45,154.45,0,0,0-225.14,205.4H2478.4V291.72h106.39V226.51H2478.4V175h133.85V109.8H2124.9V175h109.82V408.41h68.64V175h109.83V408.41h178.46l53.72-53.71a154.47,154.47,0,0,0,265.46-40.05v93.76H2976V312.32h31.49l54.31,96.09h130.42l17.06-41.18H3333.2l17.06,41.18h72.07ZM3022.38,250.54H2976V171.6h46.34a39.47,39.47,0,1,1,0,78.94Z" transform="translate(-2658 7592)" fill="#ebb92d"/><path d="M2237.94,481.59h6.94v70.35h-6.94Z" transform="translate(-2658 7592)" fill="#fff"/><path d="M2339.19,481.59H2346v70.35h-7.34l-43.59-59.58v59.58h-6.94V481.59h7.35l43.68,59.59Z" transform="translate(-2658 7592)" fill="#fff"/><path d="M2430.78,489.44a29.65,29.65,0,0,0-37.19,12.33,28.87,28.87,0,0,0-4,14.84,28.569,28.569,0,0,0,4,14.8,29.709,29.709,0,0,0,10.78,10.72,29,29,0,0,0,14.94,4,29.85,29.85,0,0,0,11.38-2.27,32.256,32.256,0,0,0,9.86-6.29l4.22,4.53a40.651,40.651,0,0,1-12,7.65,35.44,35.44,0,0,1-13.79,2.82,36.37,36.37,0,0,1-31.55-17.92,34.68,34.68,0,0,1-4.88-18,33.916,33.916,0,0,1,4.92-17.91A36.86,36.86,0,0,1,2419.21,481a37.461,37.461,0,0,1,25.47,10.06l-4.13,4.83a30.932,30.932,0,0,0-9.77-6.45Z" transform="translate(-2658 7592)" fill="#fff"/><path d="M2529.48,485.77a36.191,36.191,0,0,1,13.33,12.93,33.928,33.928,0,0,1,4.93,17.91,34.439,34.439,0,0,1-4.93,18,37.08,37.08,0,0,1-63.61,0,34.436,34.436,0,0,1-4.93-18,33.929,33.929,0,0,1,4.93-17.91,36.14,36.14,0,0,1,13.34-12.93,38.07,38.07,0,0,1,36.94,0Zm-33.27,5.38a29.661,29.661,0,0,0-10.87,10.67,28.279,28.279,0,0,0-4,14.79,28.773,28.773,0,0,0,4,14.9,29.761,29.761,0,0,0,10.87,10.82,29.15,29.15,0,0,0,14.9,4,28.68,28.68,0,0,0,14.74-4,29.851,29.851,0,0,0,10.82-10.82,28.781,28.781,0,0,0,4-14.9,28.292,28.292,0,0,0-4-14.79,29.762,29.762,0,0,0-10.82-10.67,28.931,28.931,0,0,0-14.74-3.93,29.4,29.4,0,0,0-14.9,3.93Z" transform="translate(-2658 7592)" fill="#fff"/><path d="M2630.58,551.94l-15.2-23c-2.15.14-3.79.21-4.93.21h-19.33v22.74h-6.94v-70.3h26.27q13.18,0,20.38,6.09t7.2,17.26q0,8.76-4.23,14.6a22.059,22.059,0,0,1-12.07,8.15l16.9,24.25Zm-20.13-29q10.07,0,15.5-4.58t5.44-13.24q0-8.46-5.44-12.88t-15.5-4.43h-19.33V523Z" transform="translate(-2658 7592)" fill="#fff"/><path d="M2724.29,487.68q7.14,6.09,7.14,17.26,0,11.58-7.14,17.92t-20.23,6.34h-19v22.74h-6.94V481.59h26Q2717.14,481.59,2724.29,487.68Zm-5,30.7q5.49-4.59,5.49-13.24,0-8.46-5.44-12.88t-15.6-4.43H2685V523h18.72q10.1,0,15.58-4.62Z" transform="translate(-2658 7592)" fill="#fff"/><path d="M2814.82,485.77a36.11,36.11,0,0,1,13.33,12.93,33.943,33.943,0,0,1,4.94,17.91,34.449,34.449,0,0,1-4.94,18,37.08,37.08,0,0,1-63.61,0,34.443,34.443,0,0,1-4.93-18,33.931,33.931,0,0,1,4.93-17.91,36.138,36.138,0,0,1,13.34-12.93,38.07,38.07,0,0,1,36.94,0Zm-33.27,5.38a29.661,29.661,0,0,0-10.87,10.67,28.367,28.367,0,0,0-4,14.79,28.874,28.874,0,0,0,4,14.9,29.761,29.761,0,0,0,10.87,10.82,29.15,29.15,0,0,0,14.9,4,28.68,28.68,0,0,0,14.74-4A29.852,29.852,0,0,0,2822,531.51a28.781,28.781,0,0,0,4-14.9,28.292,28.292,0,0,0-4-14.79,29.761,29.761,0,0,0-10.82-10.67,28.931,28.931,0,0,0-14.74-3.93,29.4,29.4,0,0,0-14.89,3.93Z" transform="translate(-2658 7592)" fill="#fff"/><path d="M2915.92,551.94l-15.2-23c-2.15.14-3.78.21-4.93.21h-19.33v22.74h-6.94v-70.3h26.27q13.18,0,20.38,6.09t7.2,17.26q0,8.76-4.23,14.6a22.059,22.059,0,0,1-12.07,8.15L2924,551.94Zm-20.13-29q10.07,0,15.5-4.58t5.44-13.24q0-8.46-5.44-12.88t-15.5-4.43h-19.33V523Z" transform="translate(-2658 7592)" fill="#fff"/><path d="M3016,551.94l-8.35-18.72H2968.6l-8.25,18.72h-7.45l31.7-70.35h7.25l31.71,70.35Zm-44.68-25h33.62l-16.91-38Z" transform="translate(-2658 7592)" fill="#fff"/><path d="M3102.88,486.22a34.87,34.87,0,0,1-.05,61.09,37.521,37.521,0,0,1-18.521,4.63h-28.08V481.59h28.28A37,37,0,0,1,3102.88,486.22Zm-3.57,55.66a28.983,28.983,0,0,0-14.9-54.05h-21.24V545.7h21.54a28.75,28.75,0,0,0,14.6-3.82Z" transform="translate(-2658 7592)" fill="#fff"/><path d="M3205.55,485.77a36.109,36.109,0,0,1,13.33,12.93,33.941,33.941,0,0,1,4.94,17.91,34.451,34.451,0,0,1-4.94,18,37.08,37.08,0,0,1-63.61,0,34.441,34.441,0,0,1-4.93-18,33.929,33.929,0,0,1,4.93-17.91,36.14,36.14,0,0,1,13.34-12.93,38.07,38.07,0,0,1,36.94,0Zm-33.27,5.38a29.662,29.662,0,0,0-10.87,10.67,28.367,28.367,0,0,0-4,14.79,28.871,28.871,0,0,0,4,14.9,29.761,29.761,0,0,0,10.87,10.82,29.15,29.15,0,0,0,14.9,4,28.68,28.68,0,0,0,14.74-4,29.851,29.851,0,0,0,10.82-10.82,28.781,28.781,0,0,0,4-14.9,28.292,28.292,0,0,0-4-14.79,29.755,29.755,0,0,0-10.82-10.67,28.931,28.931,0,0,0-14.74-3.93,29.4,29.4,0,0,0-14.9,3.93Z" transform="translate(-2658 7592)" fill="#fff"/><path d="M3306.65,551.94l-15.2-23c-2.15.14-3.78.21-4.93.21h-19.33v22.74h-6.94v-70.3h26.27q13.18,0,20.38,6.09t7.2,17.26q0,8.76-4.23,14.6a22.06,22.06,0,0,1-12.07,8.15l16.91,24.25Zm-20.13-29q10.07,0,15.5-4.58t5.44-13.24q0-8.46-5.44-12.88t-15.5-4.43h-19.33V523Z" transform="translate(-2658 7592)" fill="#fff"/><path d="M3406.69,551.94l-8.35-18.72h-39.05L3351,551.94h-7.45l31.7-70.35h7.25l31.71,70.35ZM3362,527h33.62l-16.91-38Z" transform="translate(-2658 7592)" fill="#fff"/></g></svg>